PathFileType	4	(X/Y/Z)	Patient4_TMGait_0pt3_03_left_22.trc.trc
DataRate	CameraRate	NumFrames	NumMarkers	Units	OrigDataRate	OrigDataStartFrame	OrigNumFrames
57.142857142857	57.142857142857	4	33	mm	57.142857142857	18	       141
Frame#	Time	Sacral			L.Shoulder			Chest			R.Shoulder			Neck			R.ASIS			L.ASIS			R.Thigh.Superior			R.Thigh.Lateral			R.Thigh.Inferior			R.Patella			L.Thigh.Superior			L.Thigh.Lateral			L.Thigh.Inferior			L.Patella			L.Shank.Superior			L.Shank.Lateral			L.Shank.Inferior			R.Shank.Superior			R.Shank.Lateral			R.Shank.Inferior			R.Heel			R.Midfoot.Superior			R.Midfoot.Lateral			R.Toe			L.Heel			L.Midfoot.Lateral			L.Midfoot.Superior			L.Toe			L.Elbow			L.Wrist			R.Elbow			R.Wrist			
		X1	Y1	Z1	X2	Y2	Z2	X3	Y3	Z3	X4	Y4	Z4	X5	Y5	Z5	X6	Y6	Z6	X7	Y7	Z7	X8	Y8	Z8	X9	Y9	Z9	X10	Y10	Z10	X11	Y11	Z11	X12	Y12	Z12	X13	Y13	Z13	X14	Y14	Z14	X15	Y15	Z15	X16	Y16	Z16	X17	Y17	Z17	X18	Y18	Z18	X19	Y19	Z19	X20	Y20	Z20	X21	Y21	Z21	X22	Y22	Z22	X23	Y23	Z23	X24	Y24	Z24	X25	Y25	Z25	X26	Y26	Z26	X27	Y27	Z27	X28	Y28	Z28	X29	Y29	Z29	X30	Y30	Z30	X31	Y31	Z31	X32	Y32	Z32	X33	Y33	Z33	

18	38.647500000000	722.324763239570	1004.832592010619	578.908298554841	884.892769957832	1423.524782418661	368.769899388254	1011.539187406822	1352.892009135148	510.761173262371	962.999797571068	1430.701040449157	694.941919432358	892.037642939595	1485.954998304970	524.771791775139	963.451441533102	927.553525308989	655.049148965668	908.333177635989	960.457195914648	387.777703181393	981.773143619753	720.431671842711	613.126319992886	904.407042729343	613.264460487291	681.956327840343	963.310321963107	558.615339072404	588.954719548347	957.082137826593	466.166221941862	594.561317249467	986.563604549488	772.353435247325	416.014870521145	937.465212324560	647.516152452762	336.149178191897	1036.716534088309	583.975833253670	399.000996432626	1060.406926539772	513.631198067473	390.944717885543	1030.401173091436	441.368382377169	376.753602922133	942.642690462033	328.704454424242	318.342837434202	1008.773554573765	212.374975187832	368.202447786573	908.204086083093	382.510551456653	606.601915713352	824.485822776712	294.333500216472	676.855701268598	835.765115854481	194.921130924113	611.364487907154	670.527383971141	46.111004087778	594.548898808806	843.790347429691	96.007163611636	624.007742246783	755.624529458708	38.027455746462	666.318570065408	963.410418753384	40.497784026357	650.662010890574	893.545494142913	47.695255996463	397.204974392217	968.330754014136	45.416630692062	318.324144370148	1050.044361769663	110.776206325345	343.103254480652	1177.601106120691	63.975483846446	315.573913197077	745.929151081106	1093.621898358033	287.263888154387	726.390551627946	835.015764994346	322.405467912882	1114.047086488627	1133.391311768405	820.328796231875	1358.525658964702	1187.405007097790	774.794979025079	
19	38.665000000000	722.742069941121	1006.888777432686	576.649817084830	885.891500306941	1424.612675835788	366.050314091733	1012.970879800667	1353.515417862158	507.452564294927	965.557707844715	1432.053111813283	691.520668935137	893.532577033742	1486.919942151115	521.856047585502	963.235711255512	928.001097861201	652.404933759802	908.141574025665	961.315615232472	385.119500585813	978.179785869244	720.083474093969	611.543299555726	899.272768781291	614.324360801291	681.194447592813	957.215527622952	558.483321399060	588.495393571521	949.840596858948	466.699000933593	594.552815531989	983.456464394440	770.857361379088	412.864393847350	931.464527344652	646.852553090943	333.245844328971	1029.785660505414	582.148369071719	395.967165926665	1053.168811559727	513.905593666811	388.993312753078	1026.548786408039	441.984657541806	374.788166578073	944.973937102208	324.871932224221	315.112993034984	1015.816759253040	211.752848559896	366.558643808952	901.565708722010	383.289865572254	606.669099394007	818.068995697374	294.854911638756	676.915574475882	829.858455184155	195.364942807599	611.460354595440	665.168229422584	46.042513675951	594.580641498998	838.431281156891	95.988159404789	624.054400260304	750.286363893188	37.982721085503	666.358287455852	958.065591020143	40.529808730842	650.649435866971	906.727518628898	43.657274935519	394.026415571436	983.585307805749	42.209585250557	316.901051313389	1062.981922786000	110.057878771282	342.960415146783	1192.652222250402	66.115724148124	319.244464440964	742.605119473401	1096.938973874733	285.512430105621	722.138694196024	838.387511866920	322.583458366672	1122.723152783533	1139.539067624625	816.059795242481	1362.693905563402	1207.230816852101	767.845995625551	
20	38.682500000000	723.204376453097	1008.271324009768	573.944451078981	887.168331383665	1425.032229013726	362.925788469560	1014.432689551093	1353.592335872420	504.022301691270	967.749625848977	1432.884105012142	687.865964013281	895.018068354698	1487.360330801267	518.547183149546	963.078350131660	928.017956614348	649.742690666162	908.272950834944	961.504244054998	382.376011868259	975.137039836113	719.484119574061	609.864742958519	894.804529651506	615.000899447651	680.190600590032	951.928951003430	558.093620228054	587.831986066705	943.461564591280	466.858344937523	594.293051517572	980.871234423050	768.836258398830	409.508976853445	925.904290021381	645.667188322562	330.394302143278	1023.476639440849	579.986504542298	392.926597661847	1046.217469175032	513.456871023074	387.010946794001	1022.536363475193	441.919006965886	372.768876205229	946.058033548398	321.341600264720	312.452864638160	1020.734773609479	211.104610263179	365.219402514204	895.620043825470	383.704716365572	606.496558516179	812.160617382470	295.223801376207	676.804300688549	824.247244012926	195.616928501358	611.441080803381	659.826506888520	45.979341210619	594.600867274280	833.118023984106	95.968152278161	624.077867749677	744.961147773673	37.944048156692	666.389591115401	952.734810138912	40.543148751268	650.638761385391	916.619665277342	40.874745893842	391.756918915046	995.041346911979	39.918493043697	315.976286952497	1072.704638041382	109.360016275203	343.049215362688	1203.798453486898	67.304322545462	322.336410463300	740.348773082613	1099.217331524712	283.359373588411	719.269118464691	840.664644060217	322.125577290269	1130.753402124049	1145.030309583279	811.506636793181	1365.937449410688	1225.109585384626	761.088874227254	
21	38.700000000000	723.696771365189	1009.012980680724	570.832279847397	888.664202752544	1424.820993299674	359.399887499021	1015.896375468606	1353.181473226429	500.459647714446	969.562290980263	1433.225726144172	683.992469332219	896.474727871287	1487.320004872701	514.859883609373	963.010214241967	927.640450392588	647.039188575750	908.681710467083	961.092801154251	379.539613172271	972.712964268983	718.656071430446	608.040477559480	891.083301336449	615.299256182954	678.898254979575	947.533978163860	557.451540425991	586.909517399777	938.028180098623	466.637817220289	593.720214916343	978.909692685151	766.498818369765	405.963261658685	920.974426707796	644.095463354334	327.654151579298	1018.044607941197	577.701853787632	389.886102332018	1039.825891463290	512.425372327763	384.992064959509	1018.597912326129	441.238569287706	370.712707278653	945.980603544206	318.133550764260	310.352202701514	1023.583683273583	210.315382812511	364.171649486026	890.416876984854	383.756204067472	606.042781277942	806.811706524788	295.464294566677	676.504593495261	818.962557781707	195.695882895324	611.297560088944	654.509575642964	45.966305001244	594.618741085416	827.869492512659	95.958289232083	624.079437105883	739.657519638828	37.936281152211	666.416407100127	947.423617803702	40.530610180376	650.632030395715	923.141187757609	39.088454167167	390.377121425846	1002.593435894948	38.345006426023	315.472400278683	1079.150569371866	108.548596788705	343.298798121650	1211.056992038668	67.448498186943	324.657270847045	739.211651625731	1100.400257849715	280.808496686704	717.749561790414	841.801752701521	320.972398314336	1137.985585306356	1149.740352525778	806.722608327749	1368.348534872656	1240.814885862461	754.578619217174	
